<svg width="192" height="125" viewBox="0 0 192 125" fill="none" xmlns="http://www.w3.org/2000/svg">
    <rect x="0.5" y="69.8845" width="80.7182" height="54.718" rx="2.5" fill="white" stroke="#16236E"/>
    <rect x="8.76367" y="0.5" width="79.8" height="54.718" rx="2.5" fill="white" stroke="#16236E"/>
    <rect x="102.418" y="0.5" width="79.8" height="54.718" rx="2.5" fill="white" stroke="#16236E"/>
    <rect x="111.6" y="69.8845" width="79.8" height="54.718" rx="2.5" fill="white" stroke="#16236E"/>
    <rect x="17.4453" y="12.6152" width="61.9339" height="2.84363" fill="#0066AB"/>
    <rect x="17.4453" y="18.3025" width="61.9339" height="2.84363" fill="#16236E"/>
    <rect x="17.4453" y="23.99" width="61.9339" height="2.84363" fill="#0066AB"/>
    <rect x="17.4453" y="29.6772" width="61.9339" height="2.84363" fill="#0066AB"/>
    <rect x="17.4453" y="35.3643" width="61.9339" height="2.84363" fill="#16236E"/>
    <rect x="17.4453" y="41.0518" width="61.9339" height="2.84363" fill="#0066AB"/>
    <rect x="111.1" y="12.6152" width="61.9339" height="2.84363" fill="#0066AB"/>
    <rect x="111.1" y="18.3025" width="61.9339" height="2.84363" fill="#16236E"/>
    <rect x="111.1" y="23.99" width="61.9339" height="2.84363" fill="#0066AB"/>
    <rect x="111.1" y="29.677" width="61.9339" height="2.84363" fill="#0066AB"/>
    <rect x="111.1" y="35.3645" width="61.9339" height="2.84363" fill="#16236E"/>
    <rect x="111.1" y="41.0518" width="61.9339" height="2.84363" fill="#0066AB"/>
    <rect x="10.0996" y="82" width="61.9339" height="2.84363" fill="#0066AB"/>
    <rect x="10.0996" y="87.6873" width="61.9339" height="2.84363" fill="#16236E"/>
    <rect x="10.0996" y="93.3745" width="61.9339" height="2.84363" fill="#0066AB"/>
    <rect x="10.0996" y="99.062" width="61.9339" height="2.84363" fill="#0066AB"/>
    <rect x="10.0996" y="104.749" width="61.9339" height="2.84363" fill="#16236E"/>
    <rect x="10.0996" y="110.437" width="61.9339" height="2.84363" fill="#0066AB"/>
    <rect x="120.282" y="82" width="61.9339" height="2.84363" fill="#0066AB"/>
    <rect x="120.282" y="87.6873" width="61.9339" height="2.84363" fill="#16236E"/>
    <rect x="120.282" y="93.3745" width="61.9339" height="2.84363" fill="#0066AB"/>
    <rect x="120.282" y="99.0618" width="61.9339" height="2.84363" fill="#0066AB"/>
    <rect x="120.282" y="104.749" width="61.9339" height="2.84363" fill="#16236E"/>
    <rect x="120.282" y="110.437" width="61.9339" height="2.84363" fill="#0066AB"/>
    <path d="M174.577 57.9181L173.523 59.5065L172.002 53.6783L172.058 53L177.321 56.3568L175.408 57.1596L176.682 58.5076L175.851 59.266L174.577 57.9181Z" fill="white"/>
    <path d="M171 51.3804L172.946 60.0032L173.355 59.4113L174.35 57.9609L175.288 59.1638L175.493 59.4356L175.739 59.2072L176.578 58.4302L176.816 58.2151L176.611 57.9429L175.763 56.8628L177.288 56.2602L177.899 56.0188L177.344 55.6452L171.663 51.8164L171 51.3804ZM171.99 52.8597L176.458 55.8544L175.101 56.3821L174.679 56.5543L174.98 56.9353L175.925 58.1251L175.569 58.4587L174.572 57.171L174.302 56.8374L174.063 57.1863L173.239 58.3939L171.99 52.8597Z" fill="#16236E"/>
    <path d="M50.623 23.3493V54.1236H142.095V34.3401C142.095 31.2627 139.191 30.4933 137.739 30.4933H99.6257C92.2209 30.933 90.3697 26.2802 90.3697 23.8988C90.3697 20.8214 87.1028 20.052 85.4694 20.052H55.5233C52.0387 19.6124 50.8045 22.067 50.623 23.3493Z" fill="#0066AB"/>
    <rect x="53.4814" y="34.2183" width="83.8491" height="35.0715" rx="3" fill="white"/>
    <path d="M43.0189 58.7219L48.4827 108.436C49.3567 112.759 53.9466 113.84 56.1323 113.84H136.996C141.367 113.407 143.189 109.697 143.553 107.896L149.563 46.8338C150.437 42.0785 147.377 40.8897 145.738 40.8897H87.8222C83.4512 40.4574 81.9942 43.9518 81.8121 45.753C80.5007 51.3729 76.1661 52.7779 74.1628 52.7779H49.5754C43.8931 52.7779 42.8368 56.7406 43.0189 58.7219Z" fill="#16236E"/>
    </svg>
    